<svg xmlns="http://www.w3.org/2000/svg" width="17.372" height="21.597" viewBox="0 0 17.372 21.597">
  <path id="Path_17389" data-name="Path 17389" d="M163.067,14.543c-1.5-2.146-2.919-3.645-1.247-5.225l1.083-1.17c.374-.4.558-.826.374-1.212l-2.009-4.2c-.184-.386-.76-.279-1.267-.063l-2.9,1.235c-2.323,1.627.919,9.314,3.2,12.573s8.4,8.934,10.72,7.307l2.153-2.305c.376-.4.673-.906.374-1.212l-3.26-3.324a1.1,1.1,0,0,0-1.267-.063l-1.47.617c-2.056,1.031-2.981-.813-4.483-2.959Z" transform="translate(-156.298 -2.478)" fill="#ff0" fill-rule="evenodd"/>
</svg>
