<svg xmlns="http://www.w3.org/2000/svg" width="19.697" height="13.568" viewBox="0 0 19.697 13.568">
  <g id="Group_4609" data-name="Group 4609" transform="translate(22063.193 1876.989)">
    <path id="Path_17374" data-name="Path 17374" d="M465.969,76.544a1.462,1.462,0,0,0,.18-.7V65.207a1.653,1.653,0,0,0-.158-.676l-6.581,5.116Z" transform="translate(-22509.646 -1940.731)" fill="#ff0"/>
    <path id="Path_17375" data-name="Path 17375" d="M364.88,65.027a.342.342,0,0,0,.451,0l8.992-7.009a1.442,1.442,0,0,0-.766-.2H356.834a1.636,1.636,0,0,0-.653.158Z" transform="translate(-22418.539 -1934.804)" fill="#ff0"/>
    <path id="Path_17376" data-name="Path 17376" d="M366.826,112.31l-1.848,1.442a1.213,1.213,0,0,1-.721.248,1.163,1.163,0,0,1-.744-.271l-1.758-1.42-6.536,6.964a1.418,1.418,0,0,0,.744.2h16.722a1.418,1.418,0,0,0,.744-.2Z" transform="translate(-22417.691 -1982.898)" fill="#ff0"/>
    <path id="Path_17377" data-name="Path 17377" d="M349.305,63.572a1.538,1.538,0,0,0-.225.789V74.976a1.463,1.463,0,0,0,.18.7l6.468-6.9Z" transform="translate(-22412.273 -1939.885)" fill="#ff0"/>
  </g>
</svg>
