<svg xmlns="http://www.w3.org/2000/svg" width="21.75" height="21.75" viewBox="0 0 21.75 21.75">
  <g id="Group_4611" data-name="Group 4611" transform="translate(20985.826 1387.286)">
    <path id="Path_17390" data-name="Path 17390" d="M576.907,243.552h-9.745a6.008,6.008,0,0,0-6,6V259.3a6.008,6.008,0,0,0,6,6h9.745a6.009,6.009,0,0,0,6-6v-9.745a6.008,6.008,0,0,0-6-6M580.98,259.3a4.077,4.077,0,0,1-4.073,4.072h-9.745a4.077,4.077,0,0,1-4.073-4.072v-9.745a4.077,4.077,0,0,1,4.073-4.073h9.745a4.077,4.077,0,0,1,4.073,4.073Z" transform="translate(-21546.984 -1630.838)" fill="#ff0"/>
    <path id="Path_17391" data-name="Path 17391" d="M577.329,254.116a5.6,5.6,0,1,0,5.6,5.6h0a5.611,5.611,0,0,0-5.6-5.6m0,9.278A3.675,3.675,0,1,1,581,259.72a3.675,3.675,0,0,1-3.675,3.675" transform="translate(-21552.277 -1636.131)" fill="#ff0"/>
    <path id="Path_17392" data-name="Path 17392" d="M593.243,250.838a1.415,1.415,0,1,0,1,.414,1.415,1.415,0,0,0-1-.414" transform="translate(-21562.354 -1634.489)" fill="#ff0"/>
  </g>
</svg>
