<svg xmlns="http://www.w3.org/2000/svg" width="24.67" height="20.04" viewBox="0 0 24.67 20.04">
  <path id="Path_17393" data-name="Path 17393" d="M471.024,247.737a10.118,10.118,0,0,1-2.905.8,5.1,5.1,0,0,0,2.226-2.8,10.092,10.092,0,0,1-3.222,1.228,5.06,5.06,0,0,0-8.747,3.463,5.282,5.282,0,0,0,.13,1.152,14.371,14.371,0,0,1-10.434-5.287,5.06,5.06,0,0,0,1.566,6.752,4.985,4.985,0,0,1-2.287-.631v.062a5.074,5.074,0,0,0,4.056,4.968,5.22,5.22,0,0,1-1.332.171,5.134,5.134,0,0,1-.956-.088,5.079,5.079,0,0,0,4.727,3.516,10.173,10.173,0,0,1-6.286,2.16,10.92,10.92,0,0,1-1.2-.067,14.393,14.393,0,0,0,22.155-12.12l-.015-.655a10.2,10.2,0,0,0,2.53-2.621Z" transform="translate(-446.355 -245.367)" fill="#ff0"/>
</svg>
