<svg xmlns="http://www.w3.org/2000/svg" width="17.237" height="21.794" viewBox="0 0 17.237 21.794">
  <g id="Group_4676" data-name="Group 4676" transform="translate(0.599 0.613)">
    <path id="Path_17431" data-name="Path 17431" d="M90.466,49.691q0,2.713,0,5.425a4.1,4.1,0,0,1-2.765,4,4.241,4.241,0,0,1-1.391.248q-3.821.036-7.642.008a4.124,4.124,0,0,1-4.03-2.884,3.761,3.761,0,0,1-.2-1.181c-.015-3.836-.011-7.672-.01-11.508,0-.379.131-.509.516-.51,1.032,0,2.063,0,3.1,0,.644,0,.617.071.61-.6a3.8,3.8,0,0,1,7.6-.119c.034.717.019.719.743.719.977,0,1.954,0,2.931,0,.419,0,.541.121.542.538Q90.468,46.758,90.466,49.691Zm-.776.244c0-1.846,0-3.691,0-5.535,0-.24-.063-.341-.325-.337q-1.383.02-2.766,0c-.265,0-.356.09-.348.35.013.465,0,.931,0,1.4,0,.23-.076.42-.338.455s-.423-.135-.427-.445c-.007-.474-.009-.95,0-1.425.005-.248-.091-.332-.34-.331q-2.685.012-5.369,0c-.283,0-.368.1-.36.366.013.447.007.895,0,1.343,0,.322-.141.492-.388.5s-.378-.158-.382-.493c0-.447,0-.9,0-1.343,0-.336-.027-.362-.356-.362q-1.343,0-2.684,0c-.405,0-.407,0-.407.407q0,5.3,0,10.605a3.386,3.386,0,0,0,3.5,3.509q3.725,0,7.45-.006a3.717,3.717,0,0,0,1.055-.129,3.329,3.329,0,0,0,2.477-3.369Q89.694,52.51,89.69,49.934Zm-7.273-6.648c.913,0,1.826-.009,2.739,0,.257,0,.349-.088.328-.334-.024-.281-.016-.567-.058-.845A3.024,3.024,0,0,0,80.956,40a3.067,3.067,0,0,0-1.538,2.97c.009.254.1.327.342.324C80.646,43.28,81.531,43.287,82.417,43.287Z" transform="translate(-74.428 -38.801)" stroke="#000" stroke-width="1.2"/>
  </g>
</svg>
