<svg xmlns="http://www.w3.org/2000/svg" width="24.761" height="31.677" viewBox="0 0 24.761 31.677">
  <path id="Path_17431" data-name="Path 17431" d="M98.791,55.343q0,4.121,0,8.241a6.233,6.233,0,0,1-4.2,6.076,6.442,6.442,0,0,1-2.113.376q-5.8.054-11.608.012a6.265,6.265,0,0,1-6.122-4.381,5.714,5.714,0,0,1-.3-1.793c-.023-5.827-.016-11.654-.015-17.482,0-.576.2-.773.783-.774,1.568,0,3.134,0,4.7,0,.979,0,.937.108.926-.911a5.774,5.774,0,0,1,11.546-.181c.051,1.09.028,1.092,1.128,1.092,1.484,0,2.968,0,4.452,0,.636,0,.822.184.823.818Q98.793,50.889,98.791,55.343Zm-1.179.37c0-2.8,0-5.606.005-8.409,0-.364-.1-.518-.494-.512q-2.1.03-4.2,0c-.4-.006-.54.137-.529.531.019.707.006,1.414,0,2.122,0,.349-.115.638-.513.692s-.642-.206-.649-.675c-.011-.721-.013-1.443,0-2.164.008-.376-.138-.505-.517-.5q-4.078.018-8.156,0c-.429,0-.558.151-.546.555.02.678.01,1.359,0,2.039-.006.489-.215.747-.589.752s-.575-.24-.58-.749c-.007-.679,0-1.36,0-2.039,0-.51-.04-.55-.54-.55q-2.04,0-4.078,0c-.616,0-.618,0-.618.619q0,8.055,0,16.11a5.144,5.144,0,0,0,5.323,5.331q5.658.006,11.317-.009a5.647,5.647,0,0,0,1.6-.2,5.057,5.057,0,0,0,3.762-5.118Q97.617,59.626,97.611,55.713Zm-11.048-10.1c1.386,0,2.773-.013,4.16.007.39.006.53-.133.5-.507-.036-.427-.024-.862-.089-1.284a4.593,4.593,0,0,0-6.79-3.212,4.66,4.66,0,0,0-2.336,4.512c.014.385.146.5.52.492C83.873,45.6,85.218,45.616,86.564,45.615Z" transform="translate(-74.23 -38.589)" fill="#ff0" stroke="#ffff54" stroke-width="0.4"/>
</svg>
