<svg xmlns="http://www.w3.org/2000/svg" width="20.517" height="22.763" viewBox="0 0 20.517 22.763">
  <path id="Path_17430" data-name="Path 17430" d="M227.681,113.289a4.873,4.873,0,0,1,4.872,4.873v4.631H212.337v-4.468a5.035,5.035,0,0,1,5.035-5.035Zm0,1.037H217.372a4,4,0,0,0-4,4v3.432h18.143v-3.594a3.836,3.836,0,0,0-3.836-3.836Zm-5.236-14a5.27,5.27,0,1,1-5.27,5.27A5.27,5.27,0,0,1,222.445,100.33Zm0,1.037a4.233,4.233,0,1,0,4.233,4.233A4.233,4.233,0,0,0,222.445,101.367Z" transform="translate(-212.187 -100.18)" fill="#ff0" stroke="#ffff54" stroke-width="0.3"/>
</svg>
